<?xml version="1.0" standalone="no"?>
<!DOCTYPE svg PUBLIC "-//W3C//DTD SVG 20010904//EN"
 "http://www.w3.org/TR/2001/REC-SVG-20010904/DTD/svg10.dtd">
<svg version="1.0" xmlns="http://www.w3.org/2000/svg"
 width="405.000000pt" height="405.000000pt" viewBox="0 0 405.000000 405.000000"
 preserveAspectRatio="xMidYMid meet">
<metadata>
Created by potrace 1.14, written by Peter Selinger 2001-2017
</metadata>
<g transform="translate(0.000000,405.000000) scale(0.100000,-0.100000)"
fill="#000000" stroke="none">
<path d="M0 2030 l0 -2020 2025 0 2025 0 0 2020 0 2020 -2025 0 -2025 0 0
-2020z m1996 808 c64 -73 131 -149 148 -168 17 -19 96 -109 176 -200 79 -91
146 -167 149 -170 4 -3 20 -22 38 -42 l32 -37 -81 -188 c-44 -103 -85 -192
-89 -197 -6 -6 -16 -2 -26 10 -10 10 -83 93 -163 184 -79 91 -147 167 -150
170 -3 3 -66 74 -139 158 -74 83 -137 152 -140 152 -4 0 -12 -12 -18 -27 -16
-41 -130 -300 -155 -353 -11 -25 -41 -92 -65 -150 -25 -58 -56 -129 -69 -158
-13 -29 -36 -80 -50 -115 -14 -34 -36 -85 -49 -112 -12 -28 -66 -151 -120
-275 -54 -124 -102 -231 -108 -237 -11 -15 -427 -19 -427 -4 0 5 12 35 26 67
30 67 73 165 382 874 383 879 403 924 414 937 8 10 56 13 189 13 l178 0 117
-132z m1474 123 c0 -5 -27 -69 -59 -142 -33 -74 -123 -280 -201 -459 -78 -179
-151 -345 -162 -370 -11 -25 -26 -58 -33 -75 -82 -188 -193 -443 -216 -493
-16 -35 -29 -65 -29 -67 0 -3 -11 -28 -24 -57 -13 -29 -32 -73 -42 -97 -11
-25 -28 -63 -39 -85 l-20 -41 -180 -2 c-99 -2 -184 0 -190 5 -5 4 -39 41 -75
82 -35 41 -67 77 -70 80 -9 9 -94 104 -160 180 -36 41 -101 115 -145 165 -44
49 -108 122 -143 161 l-62 72 19 43 c10 24 30 69 43 99 14 30 42 96 63 145 21
50 42 94 47 99 4 6 24 -9 45 -34 33 -38 133 -152 247 -280 17 -19 80 -91 141
-160 178 -204 195 -220 195 -190 0 5 13 37 29 72 16 35 44 97 62 138 17 41 42
98 54 125 13 28 35 78 49 112 14 35 37 86 50 115 35 77 60 133 96 218 18 41
40 93 50 115 10 22 64 146 120 275 57 129 107 241 113 248 11 14 427 18 427 3z"/>
</g>
</svg>
