<svg xmlns="http://www.w3.org/2000/svg" xmlns:xlink="http://www.w3.org/1999/xlink" width="46" height="46.1" x="0" y="0" viewBox="0 0 46 46.1" xml:space="preserve" style="enable-background:new 0 0 46 46.1"><style type="text/css">.logo-short-white-0{fill:#e1e4ea}.logo-short-white-1{fill:#fff}.logo-short-white-2{fill:#377dff}</style><g><path d="M23,41.1L23,41.1c-9.9,0-18-8-18-18l0,0c0-9.9,8-18,18-18h11.3c3.7,0,6.6,3,6.6,6.6v11.4 C41,33,32.9,41.1,23,41.1z" class="logo-short-white-0" opacity=".65"/><path d="M28,36L28,36c-9.9,0-18-8-18-18l0,0c0-9.9,8-18,18-18h11.3C43,0.1,46,3.1,46,6.7v11.4C46,28,38,36,28,36z" class="logo-short-white-1" opacity=".5"/><path d="M18,46.1L18,46.1c-10,0-18-8-18-18l0,0c0-9.9,8-18,18-18h11.3c3.7,0,6.6,3,6.6,6.6v11.4 C35.9,38.1,27.9,46.1,18,46.1z" class="logo-short-white-1" opacity=".7"/><g><path d="M17.4,34.1V18.4h10.2v2.9h-6.4v3.4H26v2.9h-4.8v6.5H17.4z" class="logo-short-white-2"/></g></g></svg>