<svg xmlns="http://www.w3.org/2000/svg" xmlns:xlink="http://www.w3.org/1999/xlink" width="46" height="46" x="0" y="0" viewBox="0 0 46 46" xml:space="preserve" style="enable-background:new 0 0 46 46"><style type="text/css">.logo-short-0{fill:#377dff}.logo-short-1{fill:#00dffc}.logo-short-2{fill:#377dff}.logo-short-3{fill:#fff}</style><path d="M23,41L23,41c-9.9,0-18-8-18-18v0c0-9.9,8-18,18-18h11.3C38,5,41,8,41,11.7V23C41,32.9,32.9,41,23,41z" class="logo-short-0" opacity=".65"/><path d="M28,35.9L28,35.9c-9.9,0-18-8-18-18v0c0-9.9,8-18,18-18l11.3,0C43,0,46,3,46,6.6V18C46,27.9,38,35.9,28,35.9z" class="logo-short-1" opacity=".5"/><path d="M18,46L18,46C8,46,0,38,0,28v0c0-9.9,8-18,18-18h11.3c3.7,0,6.6,3,6.6,6.6V28C35.9,38,27.9,46,18,46z" class="logo-short-2" opacity=".7"/><g><path d="M17.4,34V18.3h10.2v2.9h-6.4v3.4h4.8v2.9h-4.8V34H17.4z" class="logo-short-3"/></g></svg>