<svg xmlns="http://www.w3.org/2000/svg" xmlns:xlink="http://www.w3.org/1999/xlink" id="Layer_1" x="0" y="0" version="1.1" viewBox="0 0 160 240" xml:space="preserve" style="enable-background:new 0 0 160 240"><style type="text/css">.st0{fill:#0acf83}.st1{fill:#a259ff}.st2{fill:#f24e1e}.st3{fill:#ff7262}.st4{fill:#1abcfe}</style><desc>Created using Figma</desc><path id="path0_fill" d="M40,240c22.1,0,40-17.9,40-40v-40H40c-22.1,0-40,17.9-40,40S17.9,240,40,240z" class="st0"/><path id="path1_fill" d="M0,120c0-22.1,17.9-40,40-40h40v80H40C17.9,160,0,142.1,0,120z" class="st1"/><path id="path1_fill_1_" d="M0,40C0,17.9,17.9,0,40,0h40v80H40C17.9,80,0,62.1,0,40z" class="st2"/><path id="path2_fill" d="M80,0h40c22.1,0,40,17.9,40,40s-17.9,40-40,40H80V0z" class="st3"/><path id="path3_fill" d="M160,120c0,22.1-17.9,40-40,40s-40-17.9-40-40s17.9-40,40-40S160,97.9,160,120z" class="st4"/></svg>