<svg xmlns="http://www.w3.org/2000/svg" xmlns:xlink="http://www.w3.org/1999/xlink" id="Layer_1" x="0" y="0" version="1.1" viewBox="0 0 160 120" xml:space="preserve" style="enable-background:new 0 0 160 120"><style type="text/css">.st0{fill:#eaeaea}.st1{fill:#d54c3f}.st2{fill:#b63524}.st3{fill:#de5145}.st4{fill:#efefef}.st5{fill:#c64132}.st6{fill:#e3e3e3}.st7{fill:url(#SVGID_1_)}.st8{fill:url(#SVGID_2_)}</style><path d="M150,120H10c-5.5,0-10-4.5-10-10V10C0,4.5,4.5,0,10,0h140c5.5,0,10,4.5,10,10v100C160,115.5,155.5,120,150,120z" class="st0"/><path d="M20,120H10c-5.5,0-10-4.5-10-10V10C0,4.5,4.5,0,10,0s10,4.5,10,10V120z" class="st1"/><path d="M140,120h10c5.5,0,10-4.5,10-10V10c0-5.5-4.5-10-10-10s-10,4.5-10,10V120z" class="st2"/><path d="M155.7,18.2c4.5-3.2,5.6-9.4,2.5-13.9c-3.2-4.5-9.4-5.6-13.9-2.5L80,48.6l0,0l0,0L15.7,1.8	C11.2-1.4,5-0.3,1.8,4.3S-0.3,15,4.3,18.2l0,0L4,18l76,55.3 M156,18L80,73.3" class="st3"/><path d="M150,0c-2.1,0-4.1,0.7-5.7,1.8L80,48.6l0,0l0,0L15.7,1.8C14.1,0.6,12.1,0,10,0H150z" class="st4"/><path d="M20,34L3.2,17.3l0,0c0.4,0.3,0.7,0.6,1.1,0.9L4,18l16,11.6l0,4.4" class="st5"/><path d="M68.9,82L20,120l0-86.5L68.9,82" class="st6"/><linearGradient id="SVGID_1_" x1="-5.624" x2="-4.057" y1="116.569" y2="116.569" gradientTransform="matrix(38.2761 0 0 -38.2761 235.2731 4517.6318)" gradientUnits="userSpaceOnUse"><stop offset="0" style="stop-color:#c8c8c8"/><stop offset="1" style="stop-color:#cdcdcd"/></linearGradient><path d="M68.9,82L80,73.3L20,29.7v3.9L68.9,82L68.9,82z" class="st7"/><linearGradient id="SVGID_2_" x1="-4.347" x2="-2.489" y1="116.073" y2="116.073" gradientTransform="matrix(38.2761 0 0 -38.2761 235.2731 4517.6318)" gradientUnits="userSpaceOnUse"><stop offset="0" style="stop-color:#d9d9d9"/><stop offset="1" style="stop-color:#e2e2e2"/></linearGradient><path d="M106.9,120H140V29.7L80,73.3L68.9,82L106.9,120z" class="st8"/></svg>