<svg xmlns="http://www.w3.org/2000/svg" xmlns:xlink="http://www.w3.org/1999/xlink" id="Laag_1" x="0" y="0" version="1.1" viewBox="0 0 200 123.6" xml:space="preserve" style="enable-background:new 0 0 200 123.6"><style type="text/css">.st0{fill:#ff5f00}.st1{fill:#eb001b}.st2{fill:#f79e1b}</style><path d="M127,110.4H73V13.2H127L127,110.4z" class="st0"/><path d="M76.4,61.8c0-19.7,9.2-37.3,23.6-48.6C89.1,4.6,75.7,0,61.8,0C27.7,0,0,27.7,0,61.8s27.7,61.8,61.8,61.8	c13.9,0,27.3-4.6,38.2-13.2C85.6,99.1,76.4,81.5,76.4,61.8" class="st1"/><path d="M200,61.8c0,34.1-27.7,61.8-61.8,61.8c-13.9,0-27.3-4.6-38.2-13.2c14.4-11.3,23.6-28.9,23.6-48.6	s-9.2-37.3-23.6-48.6C110.9,4.6,124.3,0,138.2,0C172.3,0,200,27.7,200,61.8" class="st2"/></svg>