<svg xmlns="http://www.w3.org/2000/svg" xmlns:xlink="http://www.w3.org/1999/xlink" id="Layer_1" x="0" y="0" version="1.1" viewBox="0 0 160 160" xml:space="preserve" style="enable-background:new 0 0 160 160"><style type="text/css">.st0{fill:#fff}.st1,.st2{fill:#5c54ff}.st2{fill-rule:evenodd;clip-rule:evenodd}</style><rect width="160" height="160" class="st0"/><path d="M80,80c-11,0-20-9-20-20c0-11,8.9-20,20-20c11,0,20,8.9,20,20C100,71.1,91.1,80,80,80 M80,0	C46.9,0,20,26.9,20,60c0,33.2,26.9,60,60,60c33.1,0,60-26.8,60-59.9c0,0,0,0,0-0.1C140,26.9,113.2,0,80,0" class="st1"/><path d="M40,120c-11,0-20,8.9-20,20c0,0,0,0,0,0c0,11,8.9,20,20,20c11,0,20-8.9,20-20c0,0,0,0,0,0	C60,128.9,51.1,120,40,120" class="st2"/></svg>