<svg xmlns="http://www.w3.org/2000/svg" xmlns:xlink="http://www.w3.org/1999/xlink" id="Layer_1" x="0" y="0" version="1.1" viewBox="0 0 120 120" xml:space="preserve" style="enable-background:new 0 0 120 120"><style type="text/css">.jira-logo-original-0{fill:#2684ff}.jira-logo-original-1{fill:url(#SVGID_1_)}.jira-logo-original-2{fill:url(#SVGID_2_)}</style><path d="M115,0H57.2c0,14.4,11.7,26.1,26.1,26.1h10.6v10.3c0,14.4,11.7,26.1,26.1,26.1V5C120,2.2,117.8,0,115,0z" class="jira-logo-original-0"/><linearGradient id="SVGID_1_" x1="-899.722" x2="-899.744" y1="466.209" y2="466.187" gradientTransform="matrix(1168.1589 0 0 -1161.3224 1051109.125 541447.5)" gradientUnits="userSpaceOnUse"><stop offset=".18" style="stop-color:#0052cc"/><stop offset="1" style="stop-color:#2684ff"/></linearGradient><path d="M86.4,28.8H28.6c0,14.4,11.7,26.1,26.1,26.1h10.6v10.3c0,14.4,11.7,26.1,26.1,26.1V33.8	C91.4,31,89.2,28.8,86.4,28.8L86.4,28.8z" class="jira-logo-original-1"/><linearGradient id="SVGID_2_" x1="-899.29" x2="-899.314" y1="466.645" y2="466.621" gradientTransform="matrix(1168.1676 0 0 -1161.3223 1050584.75 541982.6875)" gradientUnits="userSpaceOnUse"><stop offset=".18" style="stop-color:#0052cc"/><stop offset="1" style="stop-color:#2684ff"/></linearGradient><path d="M57.8,57.6H0C0,72,11.7,83.7,26.1,83.7h10.7v10.3c0,14.4,11.7,26,26,26.1V62.6C62.8,59.8,60.6,57.6,57.8,57.6	L57.8,57.6z" class="jira-logo-original-2"/></svg>