<svg xmlns="http://www.w3.org/2000/svg" xmlns:xlink="http://www.w3.org/1999/xlink" id="Layer_1" x="0" y="0" version="1.1" viewBox="0 0 120 120" xml:space="preserve" style="enable-background:new 0 0 120 120"><style type="text/css">.slack-logo-original-0{fill:#e01e5a}.slack-logo-original-1{fill:#36c5f0}.slack-logo-original-2{fill:#2eb67d}.slack-logo-original-3{fill:#ecb22e}</style><g><g><path d="M25.3,75.9c0,7-5.6,12.6-12.6,12.6S0.1,82.8,0.1,75.9s5.6-12.6,12.6-12.6h12.6V75.9z" class="slack-logo-original-0"/><path d="M31.6,75.9c0-7,5.6-12.6,12.6-12.6s12.6,5.6,12.6,12.6v31.5c0,7-5.6,12.6-12.6,12.6s-12.6-5.6-12.6-12.6V75.9 z" class="slack-logo-original-0"/></g><g><path d="M44.2,25.2c-7,0-12.6-5.6-12.6-12.6S37.2,0,44.2,0s12.6,5.6,12.6,12.6v12.6H44.2z" class="slack-logo-original-1"/><path d="M44.2,31.6c7,0,12.6,5.6,12.6,12.6s-5.6,12.6-12.6,12.6H12.6C5.6,56.8,0,51.2,0,44.2c0-7,5.6-12.6,12.6-12.6 H44.2z" class="slack-logo-original-1"/></g><g><path d="M94.7,44.2c0-7,5.6-12.6,12.6-12.6s12.6,5.6,12.6,12.6c0,7-5.6,12.6-12.6,12.6H94.7V44.2z" class="slack-logo-original-2"/><path d="M88.4,44.2c0,7-5.6,12.6-12.6,12.6s-12.6-5.6-12.6-12.6V12.6c0-7,5.6-12.6,12.6-12.6s12.6,5.6,12.6,12.6V44.2 z" class="slack-logo-original-2"/></g><g><path d="M75.8,94.8c7,0,12.6,5.6,12.6,12.6S82.8,120,75.8,120s-12.6-5.6-12.6-12.6V94.8H75.8z" class="slack-logo-original-3"/><path d="M75.8,88.5c-7,0-12.6-5.6-12.6-12.6s5.6-12.6,12.6-12.6h31.6c7,0,12.6,5.6,12.6,12.6s-5.6,12.6-12.6,12.6 H75.8z" class="slack-logo-original-3"/></g></g></svg>